<svg xmlns="http://www.w3.org/2000/svg" viewBox="0 0 189.97 169.63"><defs><style>.cls-1{fill:none;}.cls-2{fill:#efefef;}.cls-3{fill:#c9caca;}.cls-4{fill:#8b1d22;}.cls-5{fill:#fff;}</style></defs><title>Asset 1</title><g id="Layer_2" data-name="Layer 2"><g id="レイヤー_1" data-name="レイヤー 1"><polygon class="cls-1" points="0 100.31 0 144.66 189.97 154.26 189.97 32.52 75.77 0 0 100.31"/><polygon class="cls-2" points="0 100.31 36.97 100.28 189.97 32.52 75.77 0 0 100.31"/><polygon class="cls-3" points="0 144.66 36.97 139.67 189.96 154.26 75.77 169.63 0 144.66"/><polygon class="cls-4" points="75.76 169.63 189.97 154.26 189.97 32.51 75.77 0 75.76 169.63"/><polygon class="cls-4" points="0 144.66 36.97 139.67 36.97 100.28 0 100.3 0 144.66"/><path class="cls-5" d="M101.82,37.46c-.31.11-.31.61,0,.83,2,1.44,2.69,3.9,2.67,6.49l0,6.55c0,5-3.34,7.33-8.46,6.53l-6.43-1a3.15,3.15,0,0,1-2.29-3.23l.27-36.09c0-1.58,1.06-2.58,2.34-2.23l6.52,1.78c5.11,1.39,8.08,5.06,8,10.07l0,5C104.38,34.53,103.62,36.85,101.82,37.46ZM93,32.73a.58.58,0,0,0,.38.56l2.75.62c1.59.36,2.62-.4,2.63-2.54l0-4.69c0-2.14-1-3.38-2.58-3.79l-2.76-.71c-.21-.05-.38.12-.38.38Zm3.28,6.93-2.94-.61c-.22,0-.39.13-.39.39L92.89,51a.54.54,0,0,0,.38.54l3,.51c1.59.27,2.61-.53,2.63-2.67l0-6.07C98.91,41.19,97.9,40,96.31,39.66Z"/><path class="cls-5" d="M112,60.37l-1-.15a3,3,0,0,1-2.3-3.06L109,23.24c0-1.49,1-2.42,2.33-2.07l1,.27a3.47,3.47,0,0,1,2.29,3.28l-.24,33.36A2.11,2.11,0,0,1,112,60.37Z"/><path class="cls-5" d="M136.67,48.12,136.61,57c0,5.57-3.44,7.11-8.56,6.31l-.38-.06c-5.13-.79-8.49-3.43-8.45-9.37L119.39,31c0-5.66,3.44-7.13,8.55-5.72l.39.1c5.11,1.41,8.48,4.6,8.44,10l0,2.68A1.86,1.86,0,0,1,134.41,40l-1-.23a3.19,3.19,0,0,1-2.3-3V34.89c0-2.62-1.23-3.68-3.06-4.15s-3.1,0-3.12,2.63l-.15,20.54c0,2.67,1.23,3.63,3.07,4S131,57.66,131,55l0-5a.52.52,0,0,0-.38-.5l-.58-.11a3.11,3.11,0,0,1-2.3-3v-.11a1.92,1.92,0,0,1,2.34-2l4.24.92A3.11,3.11,0,0,1,136.67,48.12Z"/><path class="cls-5" d="M101.15,103v.46a2.53,2.53,0,0,1-2.34,2.71L89.18,106a2.68,2.68,0,0,1-2.3-2.91L87.16,67c0-1.59,1.06-2.73,2.34-2.56l1,.13a3.05,3.05,0,0,1,2.3,3.14l-.24,31.76a.45.45,0,0,0,.38.48l5.95.21A2.66,2.66,0,0,1,101.15,103Z"/><path class="cls-5" d="M112.74,67.11h0c4.91.67,8.86,5.66,8.82,11.15l-.15,20.3c0,4.65-3.44,8.37-7.61,8.3l-2.32,0c-4.17-.07-7.52-4.1-7.48-9l.17-23.45C104.22,68.29,107.62,66.41,112.74,67.11Zm-.06,34.07c1.84.07,3.1-.66,3.12-3.41L116,76.68c0-2.75-1.23-3.67-3.07-3.89s-3.1.42-3.12,3.22l-.16,21.49C109.59,100.3,110.84,101.12,112.68,101.18Z"/><path class="cls-5" d="M143,95l0,4.89c0,5.45-3.44,7.41-8.56,7.32h-.1c-5.13-.09-8.5-2.22-8.46-8L126,76.81c0-5.54,3.44-7.42,8.56-6.73l.1,0c5.12.69,8.48,3.37,8.45,8.61l0,4A2.16,2.16,0,0,1,140.76,85l-1-.09a2.65,2.65,0,0,1-2.3-2.68l0-3.18c0-2.51-1.13-3.42-2.92-3.63s-3,.43-3,3l-.15,20.1c0,2.56,1.14,3.38,2.93,3.44s2.95-.67,3-3.18l0-4.06a2.23,2.23,0,0,1,2.34-2.31l1,.06A2.55,2.55,0,0,1,143,95Z"/><path class="cls-5" d="M163,107.3l-1.79,0a1.93,1.93,0,0,1-2.07-1.8l-.83-5.39a.41.41,0,0,0-.38-.34l-5.53-.24a.36.36,0,0,0-.38.31l-.91,5.47a1.9,1.9,0,0,1-2.09,1.78l-1.5,0c-1.31,0-2-.79-1.73-2.18l5.78-30.29a1.69,1.69,0,0,1,2.14-1.48l3.48.47a2.26,2.26,0,0,1,2.11,2l5.46,29.78C164.94,106.63,164.26,107.32,163,107.3Zm-5.5-12.64-1.83-12.28c-.06-.44-.69-.5-.76-.07l-2,12.07a.41.41,0,0,0,.37.47l3.84.23A.36.36,0,0,0,157.45,94.66Z"/><path class="cls-5" d="M182.17,105.18v.36a2.2,2.2,0,0,1-2.34,2.06l-9.62-.17a2.31,2.31,0,0,1-2.31-2.26l.19-27.93a2,2,0,0,1,2.34-1.91l1,.13A2.64,2.64,0,0,1,173.7,78l-.17,24.46a.39.39,0,0,0,.38.38l6,.21A2.29,2.29,0,0,1,182.17,105.18Z"/><path class="cls-5" d="M89.28,156l-.49.06c-1.28.16-2.31-1-2.3-2.58l.28-36.09a2.68,2.68,0,0,1,2.34-2.88h1.65q1.67,0,2.16,1.92l5.67,20.39c.14.49.75.32.76-.2l.14-19.4a2.63,2.63,0,0,1,2.35-2.78h.48a2.5,2.5,0,0,1,2.3,2.71l-.25,34.29a3,3,0,0,1-2.35,3l-1.36.17c-1.11.14-1.83-.41-2.16-1.64l-6-21.36c-.13-.5-.75-.35-.75.19l-.16,21.09A3.07,3.07,0,0,1,89.28,156Z"/><path class="cls-5" d="M121.88,152l-10.37,1.27a2.17,2.17,0,0,1-2.3-2.4l.25-33.81a2.57,2.57,0,0,1,2.35-2.7l10.21-.06a2.42,2.42,0,0,1,2.3,2.56v.32a2.55,2.55,0,0,1-2.34,2.62l-6.54.15a.43.43,0,0,0-.39.45l-.07,9.68a.39.39,0,0,0,.38.42l5-.28a2.29,2.29,0,0,1,2.3,2.46V133a2.72,2.72,0,0,1-2.34,2.75l-5,.36a.45.45,0,0,0-.39.47l-.08,10.23a.36.36,0,0,0,.39.4l6.68-.7a2.14,2.14,0,0,1,2.31,2.32v.32A2.88,2.88,0,0,1,121.88,152Z"/><path class="cls-5" d="M155.87,116.16,151,146.61a2.24,2.24,0,0,1-2.09,2.07l-1.7.21a1.7,1.7,0,0,1-2.12-1.54l-3.49-19.91a.38.38,0,0,0-.76,0L137,148.29a2.33,2.33,0,0,1-2.15,2.11l-1.88.23a1.69,1.69,0,0,1-2.07-1.68l-4.46-32.4c-.18-1.49.45-2.29,1.76-2.3h1.6a1.92,1.92,0,0,1,2,2L134,137.36c.05.47.68.44.76,0L138.45,116a2,2,0,0,1,2.15-1.85h1.45a1.93,1.93,0,0,1,2.11,1.79l3.41,20.33c.08.44.71.37.77-.09L150.79,116a1.92,1.92,0,0,1,2.05-1.87h1.3C155.45,114.09,156.07,114.81,155.87,116.16Z"/><path class="cls-5" d="M172.79,125.34l-.87,0a2.13,2.13,0,0,1-2.31-2.1l0-2.29c0-2-1.19-2.73-2.84-2.7a2.61,2.61,0,0,0-2.87,2.88l0,2.25c0,1.68.56,2.41,2.16,3.21l3.95,1.91c3.23,1.53,5.16,2.8,5.14,6.18l0,4.54c0,4.86-3.29,7-8.43,7.61h-.1c-5.13.64-8.37-.73-8.33-5.94l0-3.54a2.57,2.57,0,0,1,2.34-2.48l.87-.07a2.07,2.07,0,0,1,2.31,2.07l0,2.72c0,2,1.19,2.78,2.88,2.6a3,3,0,0,0,2.93-3.16l0-2.53c0-1.65-.52-2.44-2.21-3.18l-3.9-1.87c-3.28-1.62-5.16-3-5.14-6.53l0-4.4c0-5,3.73-6.9,8.37-6.92h.1c4.65,0,8.31,1.76,8.28,6.44l0,3A2.41,2.41,0,0,1,172.79,125.34Z"/></g></g></svg>